<mxfile host="65bd71144e">
    <diagram id="jQBGM29vuJ6z1mWd4INr" name="Страница 1">
        <mxGraphModel dx="1104" dy="1613" grid="1" gridSize="10" guides="1" tooltips="1" connect="1" arrows="1" fold="1" page="1" pageScale="1" pageWidth="827" pageHeight="1169" math="0" shadow="0">
            <root>
                <mxCell id="0"/>
                <mxCell id="1" parent="0"/>
                <mxCell id="JwT51QHlA4nPGzjW0GlX-1" value="" style="edgeStyle=orthogonalEdgeStyle;rounded=0;orthogonalLoop=1;jettySize=auto;html=1;" parent="1" edge="1">
                    <mxGeometry relative="1" as="geometry">
                        <mxPoint x="209.99999999999977" y="-1100" as="sourcePoint"/>
                        <mxPoint x="210" y="-1070" as="targetPoint"/>
                        <Array as="points">
                            <mxPoint x="210" y="-1090"/>
                            <mxPoint x="210" y="-1090"/>
                        </Array>
                    </mxGeometry>
                </mxCell>
                <mxCell id="JwT51QHlA4nPGzjW0GlX-2" value="" style="ellipse;whiteSpace=wrap;html=1;" parent="1" vertex="1">
                    <mxGeometry x="160" y="-1140" width="100" height="40" as="geometry"/>
                </mxCell>
                <mxCell id="JwT51QHlA4nPGzjW0GlX-4" value="" style="shape=parallelogram;perimeter=parallelogramPerimeter;whiteSpace=wrap;html=1;fixedSize=1;" parent="1" vertex="1">
                    <mxGeometry x="160" y="-1070" width="100" height="30" as="geometry"/>
                </mxCell>
                <mxCell id="JwT51QHlA4nPGzjW0GlX-6" style="edgeStyle=orthogonalEdgeStyle;rounded=0;orthogonalLoop=1;jettySize=auto;html=1;entryX=0.5;entryY=0;entryDx=0;entryDy=0;" parent="1" target="JwT51QHlA4nPGzjW0GlX-22" edge="1">
                    <mxGeometry relative="1" as="geometry">
                        <mxPoint x="210" y="-1037" as="sourcePoint"/>
                    </mxGeometry>
                </mxCell>
                <mxCell id="JwT51QHlA4nPGzjW0GlX-8" value="" style="edgeStyle=orthogonalEdgeStyle;rounded=0;orthogonalLoop=1;jettySize=auto;html=1;" parent="1" source="JwT51QHlA4nPGzjW0GlX-9" target="JwT51QHlA4nPGzjW0GlX-13" edge="1">
                    <mxGeometry relative="1" as="geometry"/>
                </mxCell>
                <mxCell id="JwT51QHlA4nPGzjW0GlX-9" value="" style="rounded=0;whiteSpace=wrap;html=1;" parent="1" vertex="1">
                    <mxGeometry x="170" y="-1012" width="80" height="30" as="geometry"/>
                </mxCell>
                <mxCell id="JwT51QHlA4nPGzjW0GlX-10" value="" style="edgeStyle=orthogonalEdgeStyle;rounded=0;orthogonalLoop=1;jettySize=auto;html=1;entryX=0.5;entryY=0;entryDx=0;entryDy=0;" parent="1" source="JwT51QHlA4nPGzjW0GlX-11" target="JwT51QHlA4nPGzjW0GlX-30" edge="1">
                    <mxGeometry relative="1" as="geometry">
                        <mxPoint x="210" y="-742" as="targetPoint"/>
                    </mxGeometry>
                </mxCell>
                <mxCell id="JwT51QHlA4nPGzjW0GlX-11" value="" style="strokeWidth=2;html=1;shape=mxgraph.flowchart.loop_limit;whiteSpace=wrap;direction=west;" parent="1" vertex="1">
                    <mxGeometry x="170" y="-812" width="80" height="50" as="geometry"/>
                </mxCell>
                <mxCell id="JwT51QHlA4nPGzjW0GlX-12" value="" style="edgeStyle=orthogonalEdgeStyle;rounded=0;orthogonalLoop=1;jettySize=auto;html=1;" parent="1" source="JwT51QHlA4nPGzjW0GlX-13" target="JwT51QHlA4nPGzjW0GlX-26" edge="1">
                    <mxGeometry relative="1" as="geometry"/>
                </mxCell>
                <mxCell id="JwT51QHlA4nPGzjW0GlX-13" value="" style="strokeWidth=2;html=1;shape=mxgraph.flowchart.loop_limit;whiteSpace=wrap;" parent="1" vertex="1">
                    <mxGeometry x="170" y="-952" width="80" height="50" as="geometry"/>
                </mxCell>
                <mxCell id="JwT51QHlA4nPGzjW0GlX-14" value="" style="edgeStyle=orthogonalEdgeStyle;rounded=0;orthogonalLoop=1;jettySize=auto;html=1;" parent="1" source="JwT51QHlA4nPGzjW0GlX-15" edge="1">
                    <mxGeometry relative="1" as="geometry">
                        <mxPoint x="210" y="-812" as="targetPoint"/>
                        <Array as="points">
                            <mxPoint x="210" y="-832"/>
                            <mxPoint x="210" y="-832"/>
                        </Array>
                    </mxGeometry>
                </mxCell>
                <mxCell id="JwT51QHlA4nPGzjW0GlX-15" value="" style="shape=parallelogram;perimeter=parallelogramPerimeter;whiteSpace=wrap;html=1;fixedSize=1;" parent="1" vertex="1">
                    <mxGeometry x="160" y="-872" width="100" height="30" as="geometry"/>
                </mxCell>
                <mxCell id="JwT51QHlA4nPGzjW0GlX-16" value="START" style="text;html=1;strokeColor=none;fillColor=none;align=center;verticalAlign=middle;whiteSpace=wrap;rounded=0;" parent="1" vertex="1">
                    <mxGeometry x="180" y="-1135" width="60" height="30" as="geometry"/>
                </mxCell>
                <mxCell id="JwT51QHlA4nPGzjW0GlX-17" value="size" style="text;html=1;strokeColor=none;fillColor=none;align=center;verticalAlign=middle;whiteSpace=wrap;rounded=0;" parent="1" vertex="1">
                    <mxGeometry x="180" y="-1070" width="60" height="30" as="geometry"/>
                </mxCell>
                <mxCell id="JwT51QHlA4nPGzjW0GlX-21" value="# 5" style="text;html=1;strokeColor=none;fillColor=none;align=center;verticalAlign=middle;whiteSpace=wrap;rounded=0;" parent="1" vertex="1">
                    <mxGeometry x="90" y="-1070" width="60" height="30" as="geometry"/>
                </mxCell>
                <mxCell id="JwT51QHlA4nPGzjW0GlX-22" value="arrayA[size]" style="text;html=1;strokeColor=none;fillColor=none;align=center;verticalAlign=middle;whiteSpace=wrap;rounded=0;" parent="1" vertex="1">
                    <mxGeometry x="180" y="-1012" width="60" height="30" as="geometry"/>
                </mxCell>
                <mxCell id="JwT51QHlA4nPGzjW0GlX-24" value="# Массив размера 5" style="text;html=1;strokeColor=none;fillColor=none;align=center;verticalAlign=middle;whiteSpace=wrap;rounded=0;" parent="1" vertex="1">
                    <mxGeometry x="30" y="-1012" width="120" height="30" as="geometry"/>
                </mxCell>
                <mxCell id="JwT51QHlA4nPGzjW0GlX-25" value="i = 0;&lt;br&gt;size - 1" style="text;html=1;strokeColor=none;fillColor=none;align=center;verticalAlign=middle;whiteSpace=wrap;rounded=0;" parent="1" vertex="1">
                    <mxGeometry x="180" y="-942" width="60" height="30" as="geometry"/>
                </mxCell>
                <mxCell id="JwT51QHlA4nPGzjW0GlX-26" value="arrayA[i]" style="text;html=1;strokeColor=none;fillColor=none;align=center;verticalAlign=middle;whiteSpace=wrap;rounded=0;" parent="1" vertex="1">
                    <mxGeometry x="180" y="-872" width="60" height="30" as="geometry"/>
                </mxCell>
                <mxCell id="JwT51QHlA4nPGzjW0GlX-27" value="i =&amp;nbsp;i + 1" style="text;html=1;strokeColor=none;fillColor=none;align=center;verticalAlign=middle;whiteSpace=wrap;rounded=0;" parent="1" vertex="1">
                    <mxGeometry x="180" y="-802" width="60" height="30" as="geometry"/>
                </mxCell>
                <mxCell id="JwT51QHlA4nPGzjW0GlX-28" value="# arrayA[0]: hello&lt;br&gt;arrayA[1]: 2&lt;br&gt;&amp;nbsp; &amp;nbsp;arrayA[2]: world&lt;br&gt;&amp;nbsp; &amp;nbsp;arrayA[3]: hi&lt;br&gt;&amp;nbsp; &amp;nbsp; &amp;nbsp;arrayA[4]: Max" style="text;html=1;strokeColor=none;fillColor=none;align=center;verticalAlign=middle;whiteSpace=wrap;rounded=0;" parent="1" vertex="1">
                    <mxGeometry x="30" y="-877" width="110" height="40" as="geometry"/>
                </mxCell>
                <mxCell id="JwT51QHlA4nPGzjW0GlX-29" style="edgeStyle=orthogonalEdgeStyle;rounded=0;orthogonalLoop=1;jettySize=auto;html=1;exitX=0.5;exitY=1;exitDx=0;exitDy=0;entryX=0.5;entryY=0;entryDx=0;entryDy=0;entryPerimeter=0;" parent="1" source="JwT51QHlA4nPGzjW0GlX-30" target="JwT51QHlA4nPGzjW0GlX-32" edge="1">
                    <mxGeometry relative="1" as="geometry"/>
                </mxCell>
                <mxCell id="JwT51QHlA4nPGzjW0GlX-30" value="" style="rounded=0;whiteSpace=wrap;html=1;" parent="1" vertex="1">
                    <mxGeometry x="160" y="-732" width="100" height="40" as="geometry"/>
                </mxCell>
                <mxCell id="JwT51QHlA4nPGzjW0GlX-31" value="" style="edgeStyle=orthogonalEdgeStyle;rounded=0;orthogonalLoop=1;jettySize=auto;html=1;" parent="1" source="JwT51QHlA4nPGzjW0GlX-32" target="JwT51QHlA4nPGzjW0GlX-37" edge="1">
                    <mxGeometry relative="1" as="geometry"/>
                </mxCell>
                <mxCell id="JwT51QHlA4nPGzjW0GlX-32" value="" style="strokeWidth=2;html=1;shape=mxgraph.flowchart.loop_limit;whiteSpace=wrap;" parent="1" vertex="1">
                    <mxGeometry x="170" y="-662" width="80" height="50" as="geometry"/>
                </mxCell>
                <mxCell id="JwT51QHlA4nPGzjW0GlX-33" value="" style="edgeStyle=orthogonalEdgeStyle;rounded=0;orthogonalLoop=1;jettySize=auto;html=1;" parent="1" source="JwT51QHlA4nPGzjW0GlX-34" target="JwT51QHlA4nPGzjW0GlX-39" edge="1">
                    <mxGeometry relative="1" as="geometry"/>
                </mxCell>
                <mxCell id="JwT51QHlA4nPGzjW0GlX-34" value="" style="strokeWidth=2;html=1;shape=mxgraph.flowchart.loop_limit;whiteSpace=wrap;direction=west;" parent="1" vertex="1">
                    <mxGeometry x="170" y="-382" width="80" height="50" as="geometry"/>
                </mxCell>
                <mxCell id="JwT51QHlA4nPGzjW0GlX-35" value="" style="edgeStyle=orthogonalEdgeStyle;rounded=0;orthogonalLoop=1;jettySize=auto;html=1;" parent="1" source="JwT51QHlA4nPGzjW0GlX-37" target="JwT51QHlA4nPGzjW0GlX-40" edge="1">
                    <mxGeometry relative="1" as="geometry"/>
                </mxCell>
                <mxCell id="JwT51QHlA4nPGzjW0GlX-36" style="edgeStyle=orthogonalEdgeStyle;rounded=0;orthogonalLoop=1;jettySize=auto;html=1;" parent="1" edge="1">
                    <mxGeometry relative="1" as="geometry">
                        <mxPoint x="210" y="-407" as="targetPoint"/>
                        <Array as="points">
                            <mxPoint x="320" y="-537"/>
                            <mxPoint x="350" y="-537"/>
                            <mxPoint x="350" y="-407"/>
                        </Array>
                        <mxPoint x="300" y="-537" as="sourcePoint"/>
                    </mxGeometry>
                </mxCell>
                <mxCell id="JwT51QHlA4nPGzjW0GlX-37" value="" style="rhombus;whiteSpace=wrap;html=1;" parent="1" vertex="1">
                    <mxGeometry x="120" y="-572" width="180" height="70" as="geometry"/>
                </mxCell>
                <mxCell id="JwT51QHlA4nPGzjW0GlX-38" value="" style="edgeStyle=orthogonalEdgeStyle;rounded=0;orthogonalLoop=1;jettySize=auto;html=1;" parent="1" source="JwT51QHlA4nPGzjW0GlX-39" target="JwT51QHlA4nPGzjW0GlX-53" edge="1">
                    <mxGeometry relative="1" as="geometry"/>
                </mxCell>
                <mxCell id="JwT51QHlA4nPGzjW0GlX-39" value="" style="rounded=0;whiteSpace=wrap;html=1;" parent="1" vertex="1">
                    <mxGeometry x="510" y="-377" width="100" height="40" as="geometry"/>
                </mxCell>
                <mxCell id="JwT51QHlA4nPGzjW0GlX-40" value="" style="rounded=0;whiteSpace=wrap;html=1;" parent="1" vertex="1">
                    <mxGeometry x="150" y="-482" width="120" height="40" as="geometry"/>
                </mxCell>
                <mxCell id="JwT51QHlA4nPGzjW0GlX-41" value="sum = 0" style="text;html=1;strokeColor=none;fillColor=none;align=center;verticalAlign=middle;whiteSpace=wrap;rounded=0;" parent="1" vertex="1">
                    <mxGeometry x="165" y="-727" width="90" height="30" as="geometry"/>
                </mxCell>
                <mxCell id="JwT51QHlA4nPGzjW0GlX-42" value="i = 0;&lt;br&gt;size - 1" style="text;html=1;strokeColor=none;fillColor=none;align=center;verticalAlign=middle;whiteSpace=wrap;rounded=0;" parent="1" vertex="1">
                    <mxGeometry x="180" y="-652" width="60" height="30" as="geometry"/>
                </mxCell>
                <mxCell id="JwT51QHlA4nPGzjW0GlX-43" value="arrayA[i].Length &amp;lt;= 3 ?" style="text;html=1;strokeColor=none;fillColor=none;align=center;verticalAlign=middle;whiteSpace=wrap;rounded=0;" parent="1" vertex="1">
                    <mxGeometry x="180" y="-552" width="60" height="30" as="geometry"/>
                </mxCell>
                <mxCell id="JwT51QHlA4nPGzjW0GlX-44" value="" style="edgeStyle=orthogonalEdgeStyle;rounded=0;orthogonalLoop=1;jettySize=auto;html=1;" parent="1" target="JwT51QHlA4nPGzjW0GlX-34" edge="1">
                    <mxGeometry relative="1" as="geometry">
                        <mxPoint x="210" y="-442" as="sourcePoint"/>
                    </mxGeometry>
                </mxCell>
                <mxCell id="JwT51QHlA4nPGzjW0GlX-45" value="sum = sum + 1" style="text;html=1;strokeColor=none;fillColor=none;align=center;verticalAlign=middle;whiteSpace=wrap;rounded=0;" parent="1" vertex="1">
                    <mxGeometry x="150" y="-477" width="120" height="30" as="geometry"/>
                </mxCell>
                <mxCell id="JwT51QHlA4nPGzjW0GlX-46" value="Yes" style="text;html=1;strokeColor=none;fillColor=none;align=center;verticalAlign=middle;whiteSpace=wrap;rounded=0;" parent="1" vertex="1">
                    <mxGeometry x="220" y="-512" width="60" height="30" as="geometry"/>
                </mxCell>
                <mxCell id="JwT51QHlA4nPGzjW0GlX-47" value="No" style="text;html=1;strokeColor=none;fillColor=none;align=center;verticalAlign=middle;whiteSpace=wrap;rounded=0;" parent="1" vertex="1">
                    <mxGeometry x="292.5" y="-572" width="60" height="30" as="geometry"/>
                </mxCell>
                <mxCell id="JwT51QHlA4nPGzjW0GlX-50" value="# sum = 3&lt;br&gt;&amp;nbsp; &amp;nbsp; &amp;nbsp; &amp;nbsp; &amp;nbsp; &amp;nbsp; &amp;nbsp;&amp;nbsp;" style="text;html=1;strokeColor=none;fillColor=none;align=center;verticalAlign=middle;whiteSpace=wrap;rounded=0;" parent="1" vertex="1">
                    <mxGeometry x="60" y="-477" width="67.5" height="30" as="geometry"/>
                </mxCell>
                <mxCell id="JwT51QHlA4nPGzjW0GlX-52" value="" style="edgeStyle=orthogonalEdgeStyle;rounded=0;orthogonalLoop=1;jettySize=auto;html=1;" parent="1" source="JwT51QHlA4nPGzjW0GlX-53" target="JwT51QHlA4nPGzjW0GlX-56" edge="1">
                    <mxGeometry relative="1" as="geometry"/>
                </mxCell>
                <mxCell id="JwT51QHlA4nPGzjW0GlX-53" value="" style="strokeWidth=2;html=1;shape=mxgraph.flowchart.loop_limit;whiteSpace=wrap;direction=west;" parent="1" vertex="1">
                    <mxGeometry x="520" y="-452" width="80" height="50" as="geometry"/>
                </mxCell>
                <mxCell id="JwT51QHlA4nPGzjW0GlX-54" value="" style="edgeStyle=orthogonalEdgeStyle;rounded=0;orthogonalLoop=1;jettySize=auto;html=1;" parent="1" source="JwT51QHlA4nPGzjW0GlX-56" edge="1">
                    <mxGeometry relative="1" as="geometry">
                        <mxPoint x="560.0344827586207" y="-582" as="targetPoint"/>
                    </mxGeometry>
                </mxCell>
                <mxCell id="JwT51QHlA4nPGzjW0GlX-55" style="edgeStyle=orthogonalEdgeStyle;rounded=0;orthogonalLoop=1;jettySize=auto;html=1;exitX=1;exitY=0.5;exitDx=0;exitDy=0;" parent="1" source="JwT51QHlA4nPGzjW0GlX-56" edge="1">
                    <mxGeometry relative="1" as="geometry">
                        <mxPoint x="560" y="-642" as="targetPoint"/>
                        <Array as="points">
                            <mxPoint x="690" y="-517"/>
                            <mxPoint x="690" y="-642"/>
                        </Array>
                        <mxPoint x="710" y="-537" as="sourcePoint"/>
                    </mxGeometry>
                </mxCell>
                <mxCell id="JwT51QHlA4nPGzjW0GlX-56" value="" style="rhombus;whiteSpace=wrap;html=1;" parent="1" vertex="1">
                    <mxGeometry x="470" y="-552" width="180" height="70" as="geometry"/>
                </mxCell>
                <mxCell id="TbW14i4ydZBJU5g76_Ec-12" style="edgeStyle=orthogonalEdgeStyle;rounded=0;orthogonalLoop=1;jettySize=auto;html=1;entryX=1;entryY=0.31;entryDx=0;entryDy=0;entryPerimeter=0;" parent="1" source="JwT51QHlA4nPGzjW0GlX-58" target="JwT51QHlA4nPGzjW0GlX-140" edge="1">
                    <mxGeometry relative="1" as="geometry"/>
                </mxCell>
                <mxCell id="JwT51QHlA4nPGzjW0GlX-58" value="" style="strokeWidth=2;html=1;shape=mxgraph.flowchart.loop_limit;whiteSpace=wrap;" parent="1" vertex="1">
                    <mxGeometry x="520" y="-712" width="80" height="50" as="geometry"/>
                </mxCell>
                <mxCell id="JwT51QHlA4nPGzjW0GlX-59" value="" style="edgeStyle=orthogonalEdgeStyle;rounded=0;orthogonalLoop=1;jettySize=auto;html=1;" parent="1" target="JwT51QHlA4nPGzjW0GlX-58" edge="1">
                    <mxGeometry relative="1" as="geometry">
                        <mxPoint x="560" y="-622" as="sourcePoint"/>
                    </mxGeometry>
                </mxCell>
                <mxCell id="JwT51QHlA4nPGzjW0GlX-60" value="" style="rounded=0;whiteSpace=wrap;html=1;" parent="1" vertex="1">
                    <mxGeometry x="500" y="-622" width="120" height="40" as="geometry"/>
                </mxCell>
                <mxCell id="JwT51QHlA4nPGzjW0GlX-65" value="i = 0;&lt;br&gt;size - 1" style="text;html=1;strokeColor=none;fillColor=none;align=center;verticalAlign=middle;whiteSpace=wrap;rounded=0;" parent="1" vertex="1">
                    <mxGeometry x="530" y="-442" width="60" height="30" as="geometry"/>
                </mxCell>
                <mxCell id="JwT51QHlA4nPGzjW0GlX-67" value="arrayB[j] = arrayA[i]&lt;br&gt;j = j + 1" style="text;html=1;strokeColor=none;fillColor=none;align=center;verticalAlign=middle;whiteSpace=wrap;rounded=0;" parent="1" vertex="1">
                    <mxGeometry x="500" y="-617" width="120" height="30" as="geometry"/>
                </mxCell>
                <mxCell id="JwT51QHlA4nPGzjW0GlX-69" value="Yes" style="text;html=1;strokeColor=none;fillColor=none;align=center;verticalAlign=middle;whiteSpace=wrap;rounded=0;" parent="1" vertex="1">
                    <mxGeometry x="550" y="-582" width="60" height="30" as="geometry"/>
                </mxCell>
                <mxCell id="JwT51QHlA4nPGzjW0GlX-70" value="No" style="text;html=1;strokeColor=none;fillColor=none;align=center;verticalAlign=middle;whiteSpace=wrap;rounded=0;" parent="1" vertex="1">
                    <mxGeometry x="630" y="-552" width="60" height="30" as="geometry"/>
                </mxCell>
                <mxCell id="JwT51QHlA4nPGzjW0GlX-144" value="" style="edgeStyle=orthogonalEdgeStyle;rounded=0;orthogonalLoop=1;jettySize=auto;html=1;" parent="1" source="JwT51QHlA4nPGzjW0GlX-140" target="JwT51QHlA4nPGzjW0GlX-143" edge="1">
                    <mxGeometry relative="1" as="geometry"/>
                </mxCell>
                <mxCell id="JwT51QHlA4nPGzjW0GlX-140" value="" style="shape=document;whiteSpace=wrap;html=1;boundedLbl=1;" parent="1" vertex="1">
                    <mxGeometry x="354" y="-700" width="100" height="44.25" as="geometry"/>
                </mxCell>
                <mxCell id="JwT51QHlA4nPGzjW0GlX-143" value="" style="ellipse;whiteSpace=wrap;html=1;" parent="1" vertex="1">
                    <mxGeometry x="349" y="-772" width="110" height="40" as="geometry"/>
                </mxCell>
                <mxCell id="JwT51QHlA4nPGzjW0GlX-145" value="ArrayB" style="text;html=1;strokeColor=none;fillColor=none;align=center;verticalAlign=middle;whiteSpace=wrap;rounded=0;" parent="1" vertex="1">
                    <mxGeometry x="374" y="-697" width="60" height="30" as="geometry"/>
                </mxCell>
                <mxCell id="JwT51QHlA4nPGzjW0GlX-146" value="FINISH" style="text;html=1;strokeColor=none;fillColor=none;align=center;verticalAlign=middle;whiteSpace=wrap;rounded=0;" parent="1" vertex="1">
                    <mxGeometry x="374" y="-767" width="60" height="30" as="geometry"/>
                </mxCell>
                <mxCell id="TbW14i4ydZBJU5g76_Ec-3" value="i =&amp;nbsp;i + 1" style="text;html=1;strokeColor=none;fillColor=none;align=center;verticalAlign=middle;whiteSpace=wrap;rounded=0;" parent="1" vertex="1">
                    <mxGeometry x="180" y="-372" width="60" height="30" as="geometry"/>
                </mxCell>
                <mxCell id="TbW14i4ydZBJU5g76_Ec-4" value="arrayB[sum]&lt;br&gt;j = 0" style="text;html=1;strokeColor=none;fillColor=none;align=center;verticalAlign=middle;whiteSpace=wrap;rounded=0;" parent="1" vertex="1">
                    <mxGeometry x="530" y="-372" width="60" height="30" as="geometry"/>
                </mxCell>
                <mxCell id="TbW14i4ydZBJU5g76_Ec-5" value="# Массив размера 3" style="text;html=1;strokeColor=none;fillColor=none;align=center;verticalAlign=middle;whiteSpace=wrap;rounded=0;" parent="1" vertex="1">
                    <mxGeometry x="635" y="-372" width="120" height="30" as="geometry"/>
                </mxCell>
                <mxCell id="TbW14i4ydZBJU5g76_Ec-6" value="arrayA[i].Length &amp;lt;= 3 ?" style="text;html=1;strokeColor=none;fillColor=none;align=center;verticalAlign=middle;whiteSpace=wrap;rounded=0;" parent="1" vertex="1">
                    <mxGeometry x="530" y="-532" width="60" height="30" as="geometry"/>
                </mxCell>
                <mxCell id="TbW14i4ydZBJU5g76_Ec-8" value="i =&amp;nbsp;i + 1" style="text;html=1;strokeColor=none;fillColor=none;align=center;verticalAlign=middle;whiteSpace=wrap;rounded=0;" parent="1" vertex="1">
                    <mxGeometry x="530" y="-702" width="60" height="30" as="geometry"/>
                </mxCell>
                <mxCell id="TbW14i4ydZBJU5g76_Ec-9" value="# arrayB[0]: 2&lt;br&gt;&amp;nbsp; &amp;nbsp; arrayB[1]: hi&lt;br&gt;&amp;nbsp; &amp;nbsp;arrayB[2]: Max&lt;br&gt;&amp;nbsp; &amp;nbsp;" style="text;html=1;strokeColor=none;fillColor=none;align=center;verticalAlign=middle;whiteSpace=wrap;rounded=0;" parent="1" vertex="1">
                    <mxGeometry x="370" y="-617" width="110" height="40" as="geometry"/>
                </mxCell>
            </root>
        </mxGraphModel>
    </diagram>
</mxfile>